<svg version="1.0" xmlns="http://www.w3.org/2000/svg" preserveAspectRatio="xMidYMid meet" viewBox="399.52 35.08 676.88 629.92">
<g transform="translate(0.000000,816.000000) scale(0.100000,-0.100000)" fill="#000000" stroke="none"> <path d="M8418 7790 c-40 -22 -69 -58 -86 -109 -18 -53 -14 -92 14 -150 l27 -53 -219 -219 c-159 -159 -223 -217 -234 -212 -8 4 -34 7 -57 7 -115 1 -161 -166 -64 -231 65 -44 157 -18 187 52 19 47 18 73 -7 119 l-20 39 148 151 c81 83 178 181 214 218 l66 68 39 -16 c49 -21 132 -21 172 0 59 30 102 105 102 176 -1 60 -63 147 -123 169 -44 17 -118 12 -159 -9z"></path> <path d="M10363 7391 c-85 -44 -126 -99 -144 -196 -11 -61 6 -152 37 -200 16 -24 15 -26 -12 -48 -27 -21 -193 -164 -449 -387 -231 -201 -427 -372 -625 -545 -113 -98 -205 -181 -205 -184 0 -17 35 -53 47 -48 7 3 200 169 429 369 228 199 496 433 595 518 98 85 202 176 230 203 l51 47 59 -27 c69 -31 165 -36 225 -10 98 41 162 143 163 257 0 156 -108 268 -269 277 -63 4 -76 2 -132 -26z"></path> <path d="M4230 6968 c-58 -39 -80 -82 -80 -152 0 -80 28 -131 90 -164 81 -43 192 -14 240 64 16 25 29 34 49 34 50 0 624 -51 633 -56 4 -3 8 -16 8 -30 0 -65 60 -138 124 -149 18 -4 52 -2 75 5 l42 11 196 -178 c280 -253 283 -256 291 -248 4 4 -9 21 -29 38 -72 64 -439 398 -439 400 0 2 9 20 20 42 87 170 -136 313 -254 163 l-25 -32 -283 23 c-156 12 -304 25 -329 28 l-47 5 -5 49 c-8 63 -29 102 -73 136 -30 22 -49 28 -103 31 -56 3 -71 0 -101 -20z"></path> <path d="M6744 6232 c-28 -10 -73 -32 -100 -49 -34 -21 -67 -33 -109 -37 -209 -23 -381 -86 -562 -205 -221 -144 -380 -350 -464 -598 -16 -48 -41 -99 -58 -118 -42 -48 -107 -185 -133 -280 -20 -72 -22 -105 -22 -325 -1 -279 5 -309 76 -386 l39 -43 -41 -41 c-23 -23 -54 -67 -69 -99 -26 -56 -26 -56 -26 -311 l0 -255 28 -59 c15 -32 42 -75 61 -96 31 -35 33 -41 39 -136 15 -246 134 -503 298 -641 80 -67 160 -109 254 -133 73 -19 81 -24 165 -103 98 -94 206 -157 330 -193 l75 -22 -4 -229 c-3 -163 0 -236 8 -251 11 -21 18 -22 146 -22 73 0 140 3 149 6 14 5 16 55 16 453 l0 446 145 128 c79 70 145 127 147 127 2 0 1 -190 -2 -422 -6 -487 1 -455 -110 -541 -55 -43 -60 -50 -60 -87 0 -34 4 -41 25 -46 47 -12 178 94 223 181 l27 50 0 2050 0 2050 -25 50 c-33 68 -108 141 -178 173 -76 35 -211 42 -288 14z m241 -121 c55 -25 102 -66 125 -112 20 -37 20 -67 20 -1264 l0 -1225 -41 0 c-62 0 -93 -20 -222 -143 l-117 -112 0 -107 0 -108 -174 0 -174 0 -30 30 c-25 25 -39 30 -77 30 -42 0 -52 -5 -86 -39 -35 -35 -39 -44 -39 -88 0 -35 6 -58 20 -76 l20 -25 -78 -178 -78 -179 -34 3 c-100 11 -234 92 -317 191 -51 62 -133 212 -133 245 0 8 42 52 93 97 253 227 375 340 381 355 3 9 6 36 6 60 l0 45 32 -17 c17 -9 52 -37 79 -64 26 -26 55 -50 64 -54 9 -3 15 -12 13 -19 -3 -12 -182 -179 -285 -266 -27 -22 -49 -52 -60 -81 -9 -25 -32 -59 -50 -76 -42 -40 -45 -83 -7 -113 15 -12 37 -21 50 -21 39 0 72 43 65 84 -1 5 4 31 11 59 12 46 23 59 179 198 92 82 171 162 177 177 6 15 14 63 18 107 5 61 11 85 27 103 29 32 28 89 -2 113 -41 33 -93 23 -116 -21 -13 -25 -13 -34 2 -75 12 -32 25 -48 41 -52 18 -4 21 -10 16 -27 -12 -40 -23 -40 -40 0 -20 47 -17 45 -126 85 l-88 31 0 189 0 189 229 0 c221 0 230 -1 236 -20 8 -27 55 -50 99 -50 56 0 97 43 104 108 4 49 2 54 -31 87 -30 30 -42 35 -80 35 -33 0 -51 -6 -71 -25 -14 -13 -26 -29 -26 -35 0 -7 -83 -10 -250 -10 l-251 0 -24 -25 c-25 -24 -25 -27 -25 -200 0 -108 -4 -175 -10 -175 -12 0 -11 -98 1 -106 5 -3 9 -29 9 -58 l0 -53 -205 -184 c-113 -101 -209 -185 -214 -187 -10 -3 -19 38 -28 131 l-6 70 117 111 116 111 0 136 c0 103 3 140 15 155 20 27 18 57 -6 88 -29 37 -83 33 -113 -7 -18 -25 -19 -30 -6 -60 9 -20 15 -77 17 -157 l3 -125 -80 -74 -81 -74 -29 28 c-16 15 -39 49 -52 74 -20 42 -22 63 -26 251 -3 130 0 221 7 246 24 90 108 164 185 164 54 0 83 15 165 90 l78 70 526 0 526 0 28 24 28 24 3 617 2 618 25 29 c35 42 34 91 -4 129 -37 37 -79 38 -120 3 -25 -21 -31 -33 -31 -66 0 -25 8 -49 20 -65 19 -25 20 -41 20 -624 l0 -599 -529 0 -529 0 -83 -75 c-45 -41 -91 -75 -101 -75 -30 0 -91 29 -122 58 -16 15 -39 50 -52 77 -21 44 -24 65 -24 173 l0 122 95 0 c91 0 95 -1 112 -26 22 -35 73 -56 113 -47 18 3 46 21 64 39 l33 34 113 0 113 0 32 -37 c29 -34 38 -38 80 -38 41 0 51 4 81 38 l34 37 146 0 c80 0 154 4 164 10 27 14 40 63 40 147 0 69 2 77 29 103 15 16 31 43 35 60 8 40 -15 93 -48 115 l-26 17 0 220 0 219 -26 24 -26 24 21 27 c14 18 21 41 21 69 0 37 -5 48 -35 74 -59 51 -136 36 -169 -34 -26 -53 -14 -82 64 -160 l70 -69 0 -199 0 -199 -29 -27 c-53 -50 -53 -111 0 -163 26 -27 29 -35 29 -99 l0 -69 -131 0 -130 0 -33 35 c-29 30 -40 35 -81 35 -41 0 -52 -5 -81 -35 l-33 -35 -116 0 -116 0 -29 34 c-17 18 -42 36 -56 39 -42 8 -91 -11 -114 -43 -21 -30 -22 -30 -116 -30 l-95 0 6 48 c21 151 66 265 143 361 30 36 52 74 52 88 l0 23 259 0 259 0 35 -35 c29 -29 42 -35 76 -35 66 0 121 50 121 110 0 36 -31 90 -61 105 -50 27 -97 19 -135 -20 l-33 -35 -240 0 c-186 0 -241 3 -241 13 0 22 88 176 133 235 163 210 414 362 676 407 46 8 107 15 135 15 42 0 58 5 86 29 97 79 211 98 315 52z m145 -2965 l0 -264 -145 -132 -145 -131 0 303 0 304 102 92 c95 86 105 92 145 92 l43 0 0 -264z m-380 -519 l0 -323 -35 -13 c-19 -6 -44 -25 -55 -42 -20 -27 -26 -29 -89 -29 -125 0 -250 60 -368 175 l-73 72 80 184 79 184 48 25 c31 16 53 36 63 57 l15 33 168 0 167 0 0 -323z"></path> <path d="M6050 5175 c0 -8 5 -15 10 -15 6 0 10 7 10 15 0 8 -4 15 -10 15 -5 0 -10 -7 -10 -15z"></path> <path d="M5854 5100 c-12 -4 -31 -21 -44 -37 -70 -89 71 -199 144 -112 34 40 34 80 -1 118 -31 33 -67 45 -99 31z"></path> <path d="M6860 4043 c-51 -19 -68 -84 -30 -118 43 -39 120 -7 120 50 0 42 -52 82 -90 68z"></path> <path d="M6843 3700 c-60 -24 -78 -117 -32 -166 43 -46 131 -37 159 15 17 34 12 95 -11 120 -35 37 -74 48 -116 31z"></path> <path d="M6485 2618 c-28 -16 -35 -28 -35 -65 0 -36 29 -63 68 -63 29 0 72 42 72 70 0 26 -43 70 -67 70 -10 0 -27 -6 -38 -12z"></path> <path d="M7635 6236 c-109 -34 -197 -116 -230 -214 -12 -32 -14 -397 -16 -2078 -2 -2288 -9 -2077 74 -2163 52 -54 153 -121 182 -121 32 0 48 24 40 59 -6 30 -16 39 -105 104 -25 18 -55 48 -67 66 -22 33 -23 41 -24 317 -1 156 -2 290 -3 297 -1 18 39 20 54 2 7 -9 28 -15 52 -15 78 0 117 82 63 135 -34 35 -76 33 -120 -6 -20 -18 -39 -29 -42 -25 -4 3 -6 84 -5 179 l2 172 195 0 196 0 -1 -329 c0 -308 -2 -330 -19 -342 -47 -33 -51 -64 -51 -366 0 -208 3 -287 12 -296 15 -15 244 -17 282 -2 l26 10 0 245 0 245 28 6 c151 32 311 125 403 234 32 38 48 49 80 53 55 7 171 65 245 121 175 132 303 397 321 665 6 89 9 98 44 149 59 83 72 135 73 286 0 81 -5 150 -13 181 -11 40 -11 65 -2 116 16 92 -6 156 -78 228 l-39 39 34 42 c59 75 76 137 82 298 3 111 1 155 -11 200 -28 101 -47 206 -47 262 0 59 -33 142 -89 223 -16 23 -43 84 -60 134 -39 118 -75 188 -146 288 -198 278 -513 466 -845 504 -59 7 -87 16 -135 45 -33 20 -82 43 -109 51 -60 18 -176 18 -231 1z m229 -125 c23 -10 58 -32 78 -48 32 -26 48 -31 121 -37 304 -25 595 -183 778 -425 63 -84 140 -236 164 -326 12 -42 33 -88 53 -114 72 -95 118 -224 129 -363 l6 -78 -252 0 -251 0 0 38 c1 33 8 43 68 95 57 49 71 58 95 53 71 -14 137 54 123 126 -15 81 -114 121 -170 69 -27 -26 -51 -84 -43 -105 7 -17 4 -20 -73 -91 -79 -73 -89 -89 -90 -142 l0 -43 -233 0 c-257 0 -269 -3 -282 -62 -4 -17 -23 -46 -41 -63 -54 -51 -46 -128 17 -161 78 -40 165 47 125 125 -9 17 -20 31 -25 31 -5 0 -7 9 -4 20 5 20 14 20 519 20 l514 0 0 -110 c0 -119 -9 -154 -55 -214 -29 -37 -97 -76 -134 -76 -15 0 -56 30 -115 83 -153 139 -120 127 -336 127 -254 0 -235 18 -235 -225 0 -237 -10 -225 179 -225 l131 -1 123 -110 122 -110 0 -148 0 -149 28 -28 c15 -16 67 -64 115 -107 68 -62 87 -84 87 -105 0 -47 -23 -192 -30 -192 -4 0 -70 54 -146 121 -77 67 -169 147 -206 178 -61 50 -68 60 -68 93 0 27 7 44 30 66 44 44 42 102 -4 148 -89 89 -227 -6 -174 -120 6 -14 21 -32 33 -40 18 -12 23 -27 27 -72 6 -67 -10 -50 283 -303 105 -89 192 -167 193 -172 2 -5 -17 -52 -42 -104 -84 -172 -242 -300 -400 -324 -49 -7 -63 -14 -80 -37 -87 -121 -250 -230 -374 -250 -37 -6 -43 -3 -77 30 -20 20 -50 39 -66 43 l-29 6 0 348 0 348 -26 20 c-25 20 -39 21 -240 21 l-214 0 0 334 c0 207 4 345 10 362 8 19 8 30 0 38 -6 6 -10 92 -10 231 l0 222 98 6 c53 4 120 7 149 7 41 0 57 5 73 22 19 21 20 33 20 360 l0 338 265 0 266 0 117 108 c64 60 123 116 131 125 7 10 21 17 31 17 9 0 29 9 44 21 54 42 21 129 -49 129 -37 0 -62 -24 -71 -67 -5 -23 -36 -59 -119 -137 l-113 -106 -251 0 -251 0 0 39 c0 31 4 41 21 46 29 10 59 64 59 108 0 79 -48 127 -126 127 -40 0 -51 -5 -79 -34 -18 -19 -35 -47 -38 -62 -7 -40 12 -95 44 -125 l29 -27 0 -396 0 -397 -125 3 -125 3 0 508 c-1 279 2 512 5 517 3 5 76 73 161 150 l155 140 64 0 c59 0 65 -2 98 -35 29 -29 42 -35 76 -35 82 0 131 49 131 128 0 45 -26 84 -70 107 -57 30 -117 13 -151 -42 -20 -32 -22 -33 -92 -34 -40 0 -79 -3 -88 -7 -9 -4 -76 -61 -148 -127 -73 -66 -135 -121 -139 -123 -4 -1 -5 109 -2 245 6 290 6 292 113 373 55 41 182 47 261 11z m966 -1866 c100 -86 127 -105 153 -105 85 0 164 -48 202 -123 25 -50 25 -55 25 -275 0 -140 -4 -239 -11 -263 -12 -38 -63 -109 -79 -109 -5 0 -43 30 -84 67 l-76 66 0 143 c0 78 -3 149 -6 158 -6 16 -238 227 -284 259 -20 14 -48 17 -147 17 l-123 0 0 128 c0 71 3 132 7 135 3 4 73 7 154 7 l148 0 121 -105z"></path> <path d="M8376 5629 c-14 -11 -26 -31 -26 -43 0 -12 -11 -33 -25 -46 -28 -26 -32 -52 -10 -70 18 -15 52 -4 65 21 6 10 20 19 31 19 26 0 69 43 69 70 0 24 -42 70 -63 70 -8 0 -26 -9 -41 -21z"></path> <path d="M8197 5382 c-25 -28 -22 -87 5 -106 70 -49 150 41 93 104 -23 25 -76 26 -98 2z"></path> <path d="M7734 4166 c-89 -39 -101 -167 -20 -220 25 -16 26 -19 26 -134 l0 -117 -35 -28 c-49 -39 -61 -89 -34 -143 32 -67 98 -90 164 -58 84 40 95 161 19 211 -23 15 -24 20 -24 134 0 109 2 119 21 129 28 16 59 69 59 105 0 44 -31 96 -71 117 -40 21 -63 22 -105 4z m80 -98 c8 -13 8 -23 0 -35 -28 -45 -89 -9 -64 38 13 24 48 22 64 -3z m-4 -473 c14 -17 5 -51 -16 -59 -22 -8 -54 11 -54 32 0 38 46 56 70 27z"></path> <path d="M8060 3915 c-17 -18 -24 -36 -23 -61 3 -113 173 -112 173 1 0 77 -97 116 -150 60z"></path> <path d="M8110 3438 c-34 -37 -26 -75 25 -121 l45 -41 0 -338 c0 -295 -2 -342 -16 -363 -29 -45 9 -115 61 -115 56 0 99 88 60 120 -12 10 -15 45 -15 191 l0 179 109 0 109 0 20 -34 c38 -64 133 -66 176 -5 42 60 2 161 -68 175 -35 6 -96 -17 -96 -36 0 -6 -51 -10 -125 -10 l-125 0 0 129 c0 113 -2 131 -20 154 -14 17 -18 34 -14 54 13 67 -78 112 -126 61z"></path> <path d="M10380 5228 c-50 -26 -90 -89 -90 -143 1 -46 35 -113 70 -133 l30 -17 0 -276 0 -277 -30 -12 c-39 -16 -60 -56 -60 -113 0 -56 28 -93 81 -107 114 -31 195 111 112 195 -15 14 -40 29 -55 32 l-28 6 0 268 0 269 28 0 c82 0 162 61 176 133 15 80 -36 166 -112 187 -54 15 -73 13 -122 -12z"></path> <path d="M4074 3081 c-91 -56 -106 -181 -30 -257 79 -79 204 -59 261 42 l22 39 266 3 267 2 0 25 0 25 -267 0 -268 1 -22 47 c-40 84 -152 120 -229 73z"></path> <path d="M4885 2422 c-175 -158 -331 -297 -347 -310 l-28 -23 -55 27 c-71 34 -137 31 -197 -12 -55 -38 -80 -89 -81 -162 0 -63 16 -103 60 -143 43 -41 73 -52 133 -52 82 0 135 34 175 112 17 34 18 137 2 172 -6 12 75 90 335 324 189 169 344 314 346 320 2 7 -3 17 -11 23 -11 9 -77 -46 -332 -276z"></path> <path d="M9793 2440 c-25 -11 -51 -33 -63 -52 -24 -40 -26 -111 -5 -152 8 -15 15 -29 15 -31 0 -1 -40 -33 -90 -71 l-90 -68 0 -102 0 -101 -37 -7 c-106 -17 -169 -115 -142 -219 20 -80 82 -127 168 -127 204 0 248 272 55 342 -36 13 -36 13 -30 57 3 24 6 67 6 96 l0 53 89 67 90 66 32 -17 c23 -11 48 -15 86 -12 46 4 60 10 90 41 31 30 37 44 41 91 6 70 -20 116 -82 145 -52 26 -79 26 -133 1z"></path> </g>
</svg>